<?xml version="1.0" encoding="UTF-8"?>
<svg xmlns="http://www.w3.org/2000/svg" xmlns:xlink="http://www.w3.org/1999/xlink" width="21px" height="21px" viewBox="0 0 21 21" version="1.1">
<g id="surface1">
<path style=" stroke:none;fill-rule:nonzero;fill:rgb(81.176471%,80.392157%,81.176471%);fill-opacity:1;" d="M 3.128906 10.851562 L 0.664062 10.851562 C 0.296875 10.851562 0 10.554688 0 10.1875 C 0 9.820312 0.296875 9.523438 0.664062 9.523438 L 3.128906 9.523438 C 3.496094 9.523438 3.792969 9.820312 3.792969 10.1875 C 3.792969 10.554688 3.496094 10.851562 3.128906 10.851562 Z M 3.128906 10.851562 "/>
<path style=" stroke:none;fill-rule:nonzero;fill:rgb(100%,60%,0%);fill-opacity:1;" d="M 18.683594 3.859375 L 5.203125 3.859375 C 3.925781 3.859375 2.886719 4.898438 2.886719 6.175781 L 2.886719 14.824219 C 2.886719 16.101562 3.925781 17.140625 5.203125 17.140625 L 18.683594 17.140625 C 19.960938 17.140625 21 16.101562 21 14.824219 L 21 6.175781 C 21 4.898438 19.960938 3.859375 18.683594 3.859375 Z M 18.683594 3.859375 "/>
<path style=" stroke:none;fill-rule:nonzero;fill:rgb(98.039216%,83.529412%,16.470588%);fill-opacity:1;" d="M 11.945312 3.859375 L 5.203125 3.859375 C 3.925781 3.859375 2.886719 4.898438 2.886719 6.175781 L 2.886719 14.824219 C 2.886719 16.101562 3.925781 17.140625 5.203125 17.140625 L 11.945312 17.140625 Z M 11.945312 3.859375 "/>
<path style=" stroke:none;fill-rule:nonzero;fill:rgb(69.411765%,69.019608%,73.72549%);fill-opacity:1;" d="M 6.710938 13.957031 L 1.777344 13.957031 C 1.410156 13.957031 1.113281 13.660156 1.113281 13.292969 C 1.113281 12.929688 1.410156 12.632812 1.777344 12.632812 L 6.710938 12.632812 C 7.078125 12.632812 7.375 12.929688 7.375 13.292969 C 7.375 13.660156 7.078125 13.957031 6.710938 13.957031 Z M 6.710938 13.957031 "/>
<path style=" stroke:none;fill-rule:nonzero;fill:rgb(81.176471%,80.392157%,81.176471%);fill-opacity:1;" d="M 4.246094 13.957031 L 1.777344 13.957031 C 1.410156 13.957031 1.113281 13.660156 1.113281 13.292969 C 1.113281 12.929688 1.410156 12.632812 1.777344 12.632812 L 4.246094 12.632812 Z M 4.246094 13.957031 "/>
<path style=" stroke:none;fill-rule:nonzero;fill:rgb(98.039216%,83.529412%,16.470588%);fill-opacity:1;" d="M 13.503906 11.085938 L 20.933594 5.632812 C 20.691406 4.617188 19.773438 3.859375 18.683594 3.859375 L 5.203125 3.859375 C 4.113281 3.859375 3.195312 4.617188 2.953125 5.632812 L 10.382812 11.085938 C 11.304688 11.761719 12.582031 11.761719 13.503906 11.085938 Z M 13.503906 11.085938 "/>
<path style=" stroke:none;fill-rule:nonzero;fill:rgb(100%,91.764706%,36.862745%);fill-opacity:1;" d="M 11.945312 3.859375 L 5.203125 3.859375 C 4.113281 3.859375 3.195312 4.617188 2.953125 5.632812 L 10.382812 11.085938 C 10.84375 11.425781 11.394531 11.59375 11.945312 11.59375 Z M 11.945312 3.859375 "/>
</g>
</svg>
